<svg id="Component_28_1" data-name="Component 28 – 1" xmlns="http://www.w3.org/2000/svg" width="1920" height="1511.157" viewBox="0 0 1920 1511.157">
  <path id="Path_33" data-name="Path 33" d="M1295.287,1444.069a138.531,138.531,0,0,0-119.991,69.359l.006-.012H747.754c-151.2,0-273.769-122.571-273.769-273.769S596.557,965.878,747.754,965.878h23.459A409.759,409.759,0,0,1,747.754,829c0-188.7,127.332-347.575,300.727-395.655a138.366,138.366,0,0,1-17.763-138.55C789.2,352.52,609.059,570.049,609.059,829q0,11.029.436,22.023C449.858,907.981,335.29,1060.69,335.29,1239.647c0,227.433,185.031,412.464,412.464,412.464H1175.3l-.006-.005a138.651,138.651,0,1,0,119.991-208.037Z" transform="translate(-335.29 -210.302)" fill="#fff"/>
  <path id="Path_34" data-name="Path 34" d="M1139.276,623.366a552.027,552.027,0,0,0-69.807,4.412A551.825,551.825,0,0,0,719.406,364.7a138.892,138.892,0,1,0-17.728,138.579c139.009,38.565,248.368,148.361,286.26,287.666a409.3,409.3,0,0,1,151.337-28.876c226.793,0,410.651,183.852,410.651,410.651s-183.857,410.651-410.651,410.651H848.61a137.873,137.873,0,0,1,0,138.695h290.666c302.913,0,549.346-246.433,549.346-549.346S1442.188,623.366,1139.276,623.366ZM727.567,390.8l.011.052Z" transform="translate(231.378 -280.255)" fill="#fff"/>
</svg>
