<svg id="Icon_awesome-facebook-square" data-name="Icon awesome-facebook-square" xmlns="http://www.w3.org/2000/svg" width="17.994" height="17.994" viewBox="0 0 17.994 17.994">
  <path id="Icon_awesome-facebook-square-2" data-name="Icon awesome-facebook-square" d="M16.066,2.25H1.928A1.928,1.928,0,0,0,0,4.178V18.316a1.928,1.928,0,0,0,1.928,1.928H7.441V14.126H4.91V11.247h2.53V9.052A3.514,3.514,0,0,1,11.2,5.177a15.33,15.33,0,0,1,2.23.194v2.45H12.177a1.44,1.44,0,0,0-1.623,1.556v1.87h2.763l-.442,2.879H10.553v6.118h5.513a1.928,1.928,0,0,0,1.928-1.928V4.178A1.928,1.928,0,0,0,16.066,2.25Z" transform="translate(0 -2.25)" fill="#313131"/>
</svg>
