<svg xmlns="http://www.w3.org/2000/svg" xmlns:xlink="http://www.w3.org/1999/xlink" width="156.311" height="36.026" viewBox="0 0 156.311 36.026">
  <defs>
    <clipPath id="clip-path">
      <rect width="156.311" height="36.026" fill="none"/>
    </clipPath>
  </defs>
  <g id="Repeat_Grid_1" data-name="Repeat Grid 1" clip-path="url(#clip-path)">
    <g id="Group_21" data-name="Group 21" transform="translate(-125.455 -413.572)">
      <g id="Group_19" data-name="Group 19" transform="translate(177.841 422.554)">
        <g id="Group_18" data-name="Group 18" transform="translate(0 0)">
          <g id="Group_16" data-name="Group 16" transform="translate(14.41 0.025)">
            <path id="Path_22" data-name="Path 22" d="M602.379,465.792a6.581,6.581,0,0,0-1.16-2.147,5.774,5.774,0,0,0-1.789-1.456,4.871,4.871,0,0,0-2.295-.543,5.131,5.131,0,0,0-2.628.654,4.984,4.984,0,0,0-1.813,1.838v-7.353h-3.307V474.8h2.887v-2.245a4.86,4.86,0,0,0,1.826,1.826,5.2,5.2,0,0,0,2.64.666,5.591,5.591,0,0,0,2.393-.518,5.972,5.972,0,0,0,1.925-1.419,6.575,6.575,0,0,0,1.271-2.11,7.346,7.346,0,0,0,.457-2.616A8.217,8.217,0,0,0,602.379,465.792Zm-3.232,4.1a3.744,3.744,0,0,1-.728,1.209,3.486,3.486,0,0,1-1.135.827,3.418,3.418,0,0,1-1.456.308,3.1,3.1,0,0,1-.962-.16,3.6,3.6,0,0,1-.913-.444,3.662,3.662,0,0,1-.752-.679,2.788,2.788,0,0,1-.506-.888v-3.084a4.83,4.83,0,0,1,1.345-1.789,3.025,3.025,0,0,1,1.986-.728,2.9,2.9,0,0,1,1.357.321,3.515,3.515,0,0,1,1.073.864,3.922,3.922,0,0,1,.7,1.258,4.593,4.593,0,0,1,.247,1.505A4.188,4.188,0,0,1,599.146,469.889Z" transform="translate(-559.493 -456.786)"/>
            <path id="Path_23" data-name="Path 23" d="M457.178,463.226a3.259,3.259,0,0,0-1.234-1.147,4.253,4.253,0,0,0-2.048-.432,5.112,5.112,0,0,0-2.628.649,5.53,5.53,0,0,0-2.011,1.843v-7.353h-3.307V474.8h3.307v-7.822a4.61,4.61,0,0,1,1.246-1.794,3.019,3.019,0,0,1,1.986-.723,2,2,0,0,1,1.6.827,3.662,3.662,0,0,1,.568,2.258V474.8h3.306V466.73a10.077,10.077,0,0,0-.173-1.875A4.723,4.723,0,0,0,457.178,463.226Z" transform="translate(-445.951 -456.786)"/>
            <path id="Path_24" data-name="Path 24" d="M527.6,490.3v-9.13h-3.307v8.192a3.655,3.655,0,0,1-1.468,1.592,3.4,3.4,0,0,1-1.863.58q-2.146,0-2.146-2.986v-7.378h-3.307v8.094a5.947,5.947,0,0,0,1.036,3.8,3.671,3.671,0,0,0,3.035,1.283,6.679,6.679,0,0,0,2.986-.666,5.1,5.1,0,0,0,2.221-1.826l.074.864a1.6,1.6,0,0,0,.654,1.123,2.382,2.382,0,0,0,1.444.407q.271,0,.6-.025a7.064,7.064,0,0,0,.827-.123v-2.813a.81.81,0,0,1-.6-.247A1.162,1.162,0,0,1,527.6,490.3Z" transform="translate(-501.011 -476.092)"/>
          </g>
          <g id="Group_17" data-name="Group 17">
            <path id="Path_25" data-name="Path 25" d="M387.751,482.345a6.442,6.442,0,0,0-2.023-1.456,6.008,6.008,0,0,0-2.554-.543,5.923,5.923,0,0,0-2.541.543,6.476,6.476,0,0,0-2.011,1.456,6.732,6.732,0,0,0-1.332,2.122,6.874,6.874,0,0,0-.481,2.566,6.972,6.972,0,0,0,.469,2.542,6.546,6.546,0,0,0,1.32,2.122,6.3,6.3,0,0,0,2.011,1.443,6.1,6.1,0,0,0,2.566.531,6.183,6.183,0,0,0,2.579-.531,6.267,6.267,0,0,0,2.023-1.443,6.55,6.55,0,0,0,1.32-2.122,6.977,6.977,0,0,0,.469-2.542,6.878,6.878,0,0,0-.481-2.566A6.736,6.736,0,0,0,387.751,482.345Zm-.259,6.687a5.284,5.284,0,0,1-1.012,1.641,4.816,4.816,0,0,1-1.493,1.11,4.149,4.149,0,0,1-1.814.407,4.259,4.259,0,0,1-1.814-.395,4.516,4.516,0,0,1-1.48-1.1,5.461,5.461,0,0,1-1-1.629,5.365,5.365,0,0,1-.37-2.011,5.561,5.561,0,0,1,.37-2.036,5.411,5.411,0,0,1,1.012-1.665,4.77,4.77,0,0,1,1.481-1.123,4.068,4.068,0,0,1,1.8-.407,4.149,4.149,0,0,1,1.814.407,4.815,4.815,0,0,1,1.493,1.11A5.256,5.256,0,0,1,387.492,485a5.682,5.682,0,0,1,0,4.035Z" transform="translate(-376.808 -475.411)"/>
            <path id="Path_26" data-name="Path 26" d="M674.046,472.509V456.667h-1.678v7.847a6.708,6.708,0,0,0-2-2.06,5.031,5.031,0,0,0-2.887-.851,5.246,5.246,0,0,0-2.356.531,5.757,5.757,0,0,0-1.851,1.443,6.887,6.887,0,0,0-1.221,2.134,7.491,7.491,0,0,0-.444,2.579,6.961,6.961,0,0,0,.456,2.5,6.62,6.62,0,0,0,1.283,2.11,6.421,6.421,0,0,0,1.962,1.468,5.537,5.537,0,0,0,2.467.555,5.371,5.371,0,0,0,2.7-.74,5.852,5.852,0,0,0,2.085-2v1.357a1.111,1.111,0,0,0,.395.851,1.447,1.447,0,0,0,1.012.358,4.056,4.056,0,0,0,.666-.074V473.2Q674.046,473.2,674.046,472.509Zm-1.678-2.245a2.675,2.675,0,0,1-.543,1.246,4.894,4.894,0,0,1-1.049,1.012,5.191,5.191,0,0,1-1.308.679,4.057,4.057,0,0,1-1.345.247,4.305,4.305,0,0,1-1.887-.42,4.885,4.885,0,0,1-1.518-1.123,5.391,5.391,0,0,1-1.382-3.615,5.71,5.71,0,0,1,.333-1.925,5.577,5.577,0,0,1,.925-1.665,4.558,4.558,0,0,1,1.443-1.172,4.018,4.018,0,0,1,1.888-.444,3.924,3.924,0,0,1,1.345.247,5.123,5.123,0,0,1,1.283.691,6.11,6.11,0,0,1,1.086,1.024,4.266,4.266,0,0,1,.728,1.246Z" transform="translate(-602.253 -456.667)"/>
            <path id="Path_27" data-name="Path 27" d="M743.023,482.345A6.437,6.437,0,0,0,741,480.889a6.278,6.278,0,0,0-5.108,0,6.435,6.435,0,0,0-2.024,1.456,6.735,6.735,0,0,0-1.332,2.122,6.879,6.879,0,0,0-.481,2.566,6.967,6.967,0,0,0,.469,2.542,6.538,6.538,0,0,0,1.32,2.122,6.262,6.262,0,0,0,2.023,1.443,6.471,6.471,0,0,0,5.133,0,6.265,6.265,0,0,0,2.023-1.443,6.619,6.619,0,0,0,1.1-1.615l-1.476-.852a5.24,5.24,0,0,1-.924,1.444,4.826,4.826,0,0,1-1.493,1.11,4.151,4.151,0,0,1-1.814.407,4.259,4.259,0,0,1-1.814-.395,4.514,4.514,0,0,1-1.481-1.1,5.268,5.268,0,0,1-1.3-2.949H744.8a7.109,7.109,0,0,0,.037-.716,6.879,6.879,0,0,0-.481-2.566A6.727,6.727,0,0,0,743.023,482.345Zm-9.183,3.923a5.385,5.385,0,0,1,.313-1.246,5.549,5.549,0,0,1,1-1.665,4.594,4.594,0,0,1,1.481-1.123,4.151,4.151,0,0,1,1.813-.407,4.073,4.073,0,0,1,1.8.407,4.877,4.877,0,0,1,1.481,1.11A5.262,5.262,0,0,1,742.739,485a5.39,5.39,0,0,1,.317,1.271Z" transform="translate(-658.016 -475.411)"/>
            <path id="Path_28" data-name="Path 28" d="M804.095,481.175l-4.448,10.738L795.2,481.175h-1.816l5.356,12.93h1.816l5.356-12.93Z" transform="translate(-706.563 -476.067)"/>
            <path id="Path_29" data-name="Path 29" d="M857.9,524.248a2.1,2.1,0,0,0-.481-.7,2.27,2.27,0,0,0-.728-.466,2.412,2.412,0,0,0-.913-.17,2.387,2.387,0,0,0-.91.17,2.241,2.241,0,0,0-.722.466,2.12,2.12,0,0,0-.478.7,2.354,2.354,0,0,0,0,1.771,2.153,2.153,0,0,0,.478.706,2.212,2.212,0,0,0,.722.469,2.387,2.387,0,0,0,.91.17,2.412,2.412,0,0,0,.913-.17,2.24,2.24,0,0,0,.728-.469,2.136,2.136,0,0,0,.481-.706,2.354,2.354,0,0,0,0-1.771Zm-.244,1.7a1.9,1.9,0,0,1-1.077,1.042,2.172,2.172,0,0,1-.8.145,2.1,2.1,0,0,1-.811-.154,1.943,1.943,0,0,1-.642-.423,1.924,1.924,0,0,1-.419-.635,2.059,2.059,0,0,1-.151-.793,2.021,2.021,0,0,1,.151-.783,1.933,1.933,0,0,1,.419-.632,1.907,1.907,0,0,1,.642-.42,2.256,2.256,0,0,1,1.622,0,1.921,1.921,0,0,1,1.07,1.052,2,2,0,0,1,.154.79A2.039,2.039,0,0,1,857.653,525.948Z" transform="translate(-754.144 -509.104)"/>
            <path id="Path_30" data-name="Path 30" d="M861.716,528.344a.895.895,0,0,0,.1-.842.946.946,0,0,0-.173-.287.867.867,0,0,0-.265-.2.747.747,0,0,0-.339-.077h-1.184v2.77h.4v-1h.623l.629,1h.45l-.672-1.061A.735.735,0,0,0,861.716,528.344Zm-1.459.009V527.3H861a.456.456,0,0,1,.342.145.526.526,0,0,1,.139.379.588.588,0,0,1-.12.383.416.416,0,0,1-.342.148Z" transform="translate(-759.182 -512.29)"/>
          </g>
        </g>
      </g>
      <g id="Group_20" data-name="Group 20" transform="translate(125.455 413.572)">
        <path id="Path_31" data-name="Path 31" d="M148.341,450.635a3.3,3.3,0,0,0-2.861,1.654H135.288a6.527,6.527,0,0,1,0-13.053h.559a9.792,9.792,0,0,1,6.61-12.7,3.3,3.3,0,0,1-.424-3.3,13.117,13.117,0,0,0-10.052,12.735q0,.263.01.525a9.834,9.834,0,0,0,3.3,19.1H145.48a3.305,3.305,0,1,0,2.861-4.959Z" transform="translate(-125.455 -421.222)" fill="#ff5403"/>
        <path id="Path_32" data-name="Path 32" d="M220.1,421.752a13.146,13.146,0,0,0-1.664.105,13.156,13.156,0,0,0-8.346-6.272,3.311,3.311,0,1,0-.423,3.3,9.807,9.807,0,0,1,6.824,6.858,9.79,9.79,0,1,1,3.608,18.891h-6.929a3.287,3.287,0,0,1,0,3.307H220.1a13.1,13.1,0,1,0,0-26.193Zm-9.815-5.544h0Z" transform="translate(-187.427 -413.572)" fill="blue"/>
      </g>
    </g>
  </g>
</svg>
