<svg xmlns="http://www.w3.org/2000/svg" width="258.568" height="277.573" viewBox="0 0 258.568 277.573">
  <path id="Path_12" data-name="Path 12" d="M508.608,366.514c-4.311,0-14.981.015-19.212.553a101.362,101.362,0,0,0-64.3-48.323,25.484,25.484,0,0,0-46.906.008,101.063,101.063,0,0,0-77.45,98.124q0,2.026.08,4.045a75.765,75.765,0,0,0,25.4,147.146h78.532a25.452,25.452,0,0,0,44.1,0h59.76C509.542,568.319,508.608,367.541,508.608,366.514Zm0,176.081-59.76,0a25.453,25.453,0,0,0-44.1,0v0H326.217a50.286,50.286,0,1,1,0-100.572h4.309a75.441,75.441,0,0,1,50.908-97.811,25.437,25.437,0,0,0,40.407-.011,75.563,75.563,0,0,1,52.58,52.84c8.6-3.415,24.368-4.254,34.188-4.254C508.858,392.785,508.234,542.2,508.608,542.6Z" transform="translate(-250.455 -303.234)" fill="#fff"/>
</svg>
