<svg id="Icon_awesome-linkedin" data-name="Icon awesome-linkedin" xmlns="http://www.w3.org/2000/svg" width="17.994"
  height="17.994" viewBox="0 0 17.994 17.994">
  <path id="Icon_awesome-linkedin-2" data-name="Icon awesome-linkedin"
    d="M16.709,2.25H1.281A1.291,1.291,0,0,0,0,3.547v15.4a1.291,1.291,0,0,0,1.281,1.3H16.709a1.294,1.294,0,0,0,1.285-1.3V3.547A1.294,1.294,0,0,0,16.709,2.25ZM5.438,17.673H2.771V9.086H5.442v8.587ZM4.1,7.913A1.546,1.546,0,1,1,5.651,6.367,1.547,1.547,0,0,1,4.1,7.913Zm11.331,9.76H12.768V13.5c0-1-.02-2.277-1.386-2.277-1.39,0-1.6,1.084-1.6,2.205v4.249H7.113V9.086H9.672v1.173h.036a2.809,2.809,0,0,1,2.526-1.386c2.7,0,3.2,1.779,3.2,4.093Z"
    transform="translate(0 -2.25)" fill="#313131" />
</svg>